<?xml version="1.0" encoding="UTF-8" standalone="no"?>
<!DOCTYPE svg PUBLIC "-//W3C//DTD SVG 1.0//EN"
 "http://www.w3.org/TR/2001/REC-SVG-20010904/DTD/svg10.dtd" [
 <!ATTLIST svg xmlns:xlink CDATA #FIXED "http://www.w3.org/1999/xlink">
]>
<!-- Generated by Graphviz version 2.12 (Thu May 24 17:55:05 UTC 2007)
     For user: (samenor) Scott Menor -->
<!-- Title: How To Pages: 1 -->
<svg width="2.33in" height="2.60in"
 xmlns="http://www.w3.org/2000/svg" xmlns:xlink="http://www.w3.org/1999/xlink">
<g id="graph0" class="graph" transform="scale(1.33333 1.33333) rotate(0) translate(4 184)">
<title>How To</title>
<polygon style="fill:white;stroke:white;" points="-4,4 -4,-184 164,-184 164,4 -4,4"/>
<!-- get_an_account -->
<g id="node1" class="node"><title>get_an_account</title>
<a xlink:href="http://www.nytimes.com/" xlink:title="Get an Account">
<polygon style="fill:#294b76;stroke:black;" points="159.926,-180 56.0736,-180 56.0736,-144 159.926,-144 159.926,-180"/>
<text text-anchor="middle" x="108" y="-156" style="font:Tahoma;font-size:11.34pt;fill:white;">Get an Account</text>
</a>
</g>
<!-- connect_to_saguaro -->
<g id="node2" class="node"><title>connect_to_saguaro</title>
<polygon style="fill:#294b76;stroke:black;" points="126.21,-108 -0.2097,-108 -0.2097,-72 126.21,-72 126.21,-108"/>
<text text-anchor="middle" x="63" y="-84" style="font:Tahoma;font-size:11.34pt;fill:white;">Connect to Saguaro</text>
</g>
<!-- get_an_account&#45;&gt;connect_to_saguaro -->
<g id="edge2" class="edge"><title>get_an_account&#45;&gt;connect_to_saguaro</title>
<path style="fill:none;stroke:black;" d="M97,-144C92,-136 85,-126 79,-116"/>
<polygon style="fill:black;stroke:black;" points="82.268,-114.625 74,-108 76.332,-118.335 82.268,-114.625"/>
</g>
<!-- transfer_a_file -->
<g id="node3" class="node"><title>transfer_a_file</title>
<polygon style="fill:#294b76;stroke:black;" points="155.138,-36 60.8619,-36 60.8619,-1.77636e-14 155.138,-3.55271e-15 155.138,-36"/>
<text text-anchor="middle" x="108" y="-12" style="font:Tahoma;font-size:11.34pt;fill:white;">Transfer a file</text>
</g>
<!-- get_an_account&#45;&gt;transfer_a_file -->
<g id="edge6" class="edge"><title>get_an_account&#45;&gt;transfer_a_file</title>
<path style="fill:none;stroke:black;" d="M119,-144C125,-134 132,-121 135,-108 138,-92 138,-87 135,-72 133,-63 129,-53 125,-45"/>
<polygon style="fill:black;stroke:black;" points="127.916,-43.0418 120,-36 121.797,-46.4414 127.916,-43.0418"/>
</g>
<!-- connect_to_saguaro&#45;&gt;transfer_a_file -->
<g id="edge4" class="edge"><title>connect_to_saguaro&#45;&gt;transfer_a_file</title>
<path style="fill:none;stroke:black;" d="M74,-72C79,-64 86,-54 92,-44"/>
<polygon style="fill:black;stroke:black;" points="94.668,-46.335 97,-36 88.732,-42.625 94.668,-46.335"/>
</g>
</g>
</svg>
