<?xml version="1.0" encoding="UTF-8" standalone="no"?>
<!DOCTYPE svg PUBLIC "-//W3C//DTD SVG 1.0//EN"
 "http://www.w3.org/TR/2001/REC-SVG-20010904/DTD/svg10.dtd" [
 <!ATTLIST svg xmlns:xlink CDATA #FIXED "http://www.w3.org/1999/xlink">
]>
<!-- Generated by Graphviz version 2.12 (Thu May 24 17:55:05 UTC 2007)
     For user: (samenor) Scott Menor -->
<!-- Title: How To Pages: 1 -->
<svg width="8.04in" height="5.60in"
 xmlns="http://www.w3.org/2000/svg" xmlns:xlink="http://www.w3.org/1999/xlink">
<g id="graph0" class="graph" transform="scale(1.33333 1.33333) rotate(0) translate(4 400)">
<title>How To</title>
<polygon style="fill:white;stroke:white;" points="-4,4 -4,-400 575,-400 575,4 -4,4"/>
<!-- get&#45;an&#45;account -->
<g id="node1" class="node"><title>get&#45;an&#45;account</title>
<a xlink:href="http://a2c2.asu.edu:8080/how_tos/get&#45;an&#45;account" xlink:title="Get an account">
<polygon style="fill:#294b76;stroke:black;" points="329,-396 207,-396 207,-360 329,-360 329,-396"/>
<text text-anchor="middle" x="268" y="-372" style="font:Verdana;font-size:11.34pt;fill:white;">Get an account</text>
</a>
</g>
<!-- connect&#45;to&#45;saguaro -->
<g id="node3" class="node"><title>connect&#45;to&#45;saguaro</title>
<a xlink:href="http://a2c2.asu.edu:8080/how_tos/connect&#45;to&#45;saguaro" xlink:title="Connect to Saguaro">
<polygon style="fill:#294b76;stroke:black;" points="345,-324 191,-324 191,-288 345,-288 345,-324"/>
<text text-anchor="middle" x="268" y="-300" style="font:Verdana;font-size:11.34pt;fill:white;">Connect to Saguaro</text>
</a>
</g>
<!-- get&#45;an&#45;account&#45;&gt;connect&#45;to&#45;saguaro -->
<g id="edge2" class="edge"><title>get&#45;an&#45;account&#45;&gt;connect&#45;to&#45;saguaro</title>
<path style="fill:none;stroke:black;" d="M268,-360C268,-352 268,-343 268,-334"/>
<polygon style="fill:black;stroke:black;" points="271.5,-334 268,-324 264.5,-334 271.5,-334"/>
</g>
<!-- launch&#45;an&#45;interactive&#45;job -->
<g id="node5" class="node"><title>launch&#45;an&#45;interactive&#45;job</title>
<a xlink:href="http://a2c2.asu.edu:8080/how_tos/launch&#45;an&#45;interactive&#45;job" xlink:title="Launch an Interactive Job">
<polygon style="fill:#294b76;stroke:black;" points="194,-252 9.9476e-14,-252 0,-216 194,-216 194,-252"/>
<text text-anchor="middle" x="97" y="-228" style="font:Verdana;font-size:11.34pt;fill:white;">Launch an Interactive Job</text>
</a>
</g>
<!-- connect&#45;to&#45;saguaro&#45;&gt;launch&#45;an&#45;interactive&#45;job -->
<g id="edge4" class="edge"><title>connect&#45;to&#45;saguaro&#45;&gt;launch&#45;an&#45;interactive&#45;job</title>
<path style="fill:none;stroke:black;" d="M225,-288C202,-278 173,-266 148,-256"/>
<polygon style="fill:black;stroke:black;" points="149.56,-252.863 139,-252 146.717,-259.26 149.56,-252.863"/>
</g>
<!-- load&#45;modules -->
<g id="node7" class="node"><title>load&#45;modules</title>
<a xlink:href="http://a2c2.asu.edu:8080/how_tos/load&#45;modules" xlink:title="Load Modules">
<polygon style="fill:#294b76;stroke:black;" points="324,-252 212,-252 212,-216 324,-216 324,-252"/>
<text text-anchor="middle" x="268" y="-228" style="font:Verdana;font-size:11.34pt;fill:white;">Load Modules</text>
</a>
</g>
<!-- connect&#45;to&#45;saguaro&#45;&gt;load&#45;modules -->
<g id="edge6" class="edge"><title>connect&#45;to&#45;saguaro&#45;&gt;load&#45;modules</title>
<path style="fill:none;stroke:black;" d="M268,-288C268,-280 268,-271 268,-262"/>
<polygon style="fill:black;stroke:black;" points="271.5,-262 268,-252 264.5,-262 271.5,-262"/>
</g>
<!-- transfer&#45;files -->
<g id="node9" class="node"><title>transfer&#45;files</title>
<a xlink:href="http://a2c2.asu.edu:8080/how_tos/transfer&#45;files" xlink:title="Transfer Files">
<polygon style="fill:#294b76;stroke:black;" points="450,-252 342,-252 342,-216 450,-216 450,-252"/>
<text text-anchor="middle" x="396" y="-228" style="font:Verdana;font-size:11.34pt;fill:white;">Transfer Files</text>
</a>
</g>
<!-- connect&#45;to&#45;saguaro&#45;&gt;transfer&#45;files -->
<g id="edge8" class="edge"><title>connect&#45;to&#45;saguaro&#45;&gt;transfer&#45;files</title>
<path style="fill:none;stroke:black;" d="M300,-288C317,-279 338,-267 355,-257"/>
<polygon style="fill:black;stroke:black;" points="356.958,-259.916 364,-252 353.559,-253.797 356.958,-259.916"/>
</g>
<!-- write&#45;a&#45;job&#45;script -->
<g id="node11" class="node"><title>write&#45;a&#45;job&#45;script</title>
<a xlink:href="http://a2c2.asu.edu:8080/how_tos/write&#45;a&#45;job&#45;script" xlink:title="Write a Job Script">
<polygon style="fill:#294b76;stroke:black;" points="167,-180 29,-180 29,-144 167,-144 167,-180"/>
<text text-anchor="middle" x="98" y="-156" style="font:Verdana;font-size:11.34pt;fill:white;">Write a Job Script</text>
</a>
</g>
<!-- launch&#45;an&#45;interactive&#45;job&#45;&gt;write&#45;a&#45;job&#45;script -->
<g id="edge10" class="edge"><title>launch&#45;an&#45;interactive&#45;job&#45;&gt;write&#45;a&#45;job&#45;script</title>
<path style="fill:none;stroke:black;" d="M97,-216C98,-208 98,-199 98,-190"/>
<polygon style="fill:black;stroke:black;" points="101.5,-190 98,-180 94.5001,-190 101.5,-190"/>
</g>
<!-- load&#45;modules&#45;&gt;write&#45;a&#45;job&#45;script -->
<g id="edge14" class="edge"><title>load&#45;modules&#45;&gt;write&#45;a&#45;job&#45;script</title>
<path style="fill:none;stroke:black;" d="M225,-216C202,-206 174,-194 149,-184"/>
<polygon style="fill:black;stroke:black;" points="150.56,-180.863 140,-180 147.717,-187.26 150.56,-180.863"/>
</g>
<!-- compile&#45;a&#45;c&#45;program -->
<g id="node16" class="node"><title>compile&#45;a&#45;c&#45;program</title>
<a xlink:href="http://a2c2.asu.edu:8080/how_tos/compile&#45;a&#45;c&#45;program" xlink:title="Compile a C&#45;program">
<polygon style="fill:#294b76;stroke:black;" points="349,-180 185,-180 185,-144 349,-144 349,-180"/>
<text text-anchor="middle" x="267" y="-156" style="font:Verdana;font-size:11.34pt;fill:white;">Compile a C&#45;program</text>
</a>
</g>
<!-- load&#45;modules&#45;&gt;compile&#45;a&#45;c&#45;program -->
<g id="edge16" class="edge"><title>load&#45;modules&#45;&gt;compile&#45;a&#45;c&#45;program</title>
<path style="fill:none;stroke:black;" d="M268,-216C267,-208 267,-199 267,-190"/>
<polygon style="fill:black;stroke:black;" points="270.5,-190 267,-180 263.5,-190 270.5,-190"/>
</g>
<!-- compile&#45;a&#45;fortran&#45;program -->
<g id="node18" class="node"><title>compile&#45;a&#45;fortran&#45;program</title>
<a xlink:href="http://a2c2.asu.edu:8080/how_tos/compile&#45;a&#45;fortran&#45;program" xlink:title="Compile a Fortran Program">
<polygon style="fill:#294b76;stroke:black;" points="571,-180 367,-180 367,-144 571,-144 571,-180"/>
<text text-anchor="middle" x="469" y="-156" style="font:Verdana;font-size:11.34pt;fill:white;">Compile a Fortran Program</text>
</a>
</g>
<!-- load&#45;modules&#45;&gt;compile&#45;a&#45;fortran&#45;program -->
<g id="edge18" class="edge"><title>load&#45;modules&#45;&gt;compile&#45;a&#45;fortran&#45;program</title>
<path style="fill:none;stroke:black;" d="M318,-216C346,-206 380,-194 409,-183"/>
<polygon style="fill:black;stroke:black;" points="410.427,-186.226 419,-180 408.416,-179.521 410.427,-186.226"/>
</g>
<!-- schedule&#45;a&#45;parallel&#45;mpi&#45;job -->
<g id="node13" class="node"><title>schedule&#45;a&#45;parallel&#45;mpi&#45;job</title>
<a xlink:href="http://a2c2.asu.edu:8080/how_tos/schedule&#45;a&#45;parallel&#45;mpi&#45;job" xlink:title="Schedule a Parallel (MPI) Job">
<polygon style="fill:#294b76;stroke:black;" points="301,-36 87,-36 87,-1.77636e-14 301,-3.55271e-15 301,-36"/>
<text text-anchor="middle" x="194" y="-12" style="font:Verdana;font-size:11.34pt;fill:white;">Schedule a Parallel (MPI) Job</text>
</a>
</g>
<!-- write&#45;a&#45;job&#45;script&#45;&gt;schedule&#45;a&#45;parallel&#45;mpi&#45;job -->
<g id="edge12" class="edge"><title>write&#45;a&#45;job&#45;script&#45;&gt;schedule&#45;a&#45;parallel&#45;mpi&#45;job</title>
<path style="fill:none;stroke:black;" d="M110,-144C127,-119 158,-74 177,-44"/>
<polygon style="fill:black;stroke:black;" points="179.668,-46.335 182,-36 173.732,-42.625 179.668,-46.335"/>
</g>
<!-- compile&#45;an&#45;mpi&#45;program -->
<g id="node20" class="node"><title>compile&#45;an&#45;mpi&#45;program</title>
<a xlink:href="http://a2c2.asu.edu:8080/how_tos/compile&#45;an&#45;mpi&#45;program" xlink:title="Compile an MPI Program">
<polygon style="fill:#294b76;stroke:black;" points="361,-108 173,-108 173,-72 361,-72 361,-108"/>
<text text-anchor="middle" x="267" y="-84" style="font:Verdana;font-size:11.34pt;fill:white;">Compile an MPI Program</text>
</a>
</g>
<!-- compile&#45;a&#45;c&#45;program&#45;&gt;compile&#45;an&#45;mpi&#45;program -->
<g id="edge20" class="edge"><title>compile&#45;a&#45;c&#45;program&#45;&gt;compile&#45;an&#45;mpi&#45;program</title>
<path style="fill:none;stroke:black;" d="M267,-144C267,-136 267,-127 267,-118"/>
<polygon style="fill:black;stroke:black;" points="270.5,-118 267,-108 263.5,-118 270.5,-118"/>
</g>
<!-- compile&#45;a&#45;fortran&#45;program&#45;&gt;compile&#45;an&#45;mpi&#45;program -->
<g id="edge22" class="edge"><title>compile&#45;a&#45;fortran&#45;program&#45;&gt;compile&#45;an&#45;mpi&#45;program</title>
<path style="fill:none;stroke:black;" d="M418,-144C390,-134 356,-122 327,-111"/>
<polygon style="fill:black;stroke:black;" points="327.584,-107.521 317,-108 325.573,-114.226 327.584,-107.521"/>
</g>
<!-- compile&#45;an&#45;mpi&#45;program&#45;&gt;schedule&#45;a&#45;parallel&#45;mpi&#45;job -->
<g id="edge24" class="edge"><title>compile&#45;an&#45;mpi&#45;program&#45;&gt;schedule&#45;a&#45;parallel&#45;mpi&#45;job</title>
<path style="fill:none;stroke:black;" d="M249,-72C240,-63 229,-53 219,-43"/>
<polygon style="fill:black;stroke:black;" points="221.546,-40.5962 212,-36 216.596,-45.546 221.546,-40.5962"/>
</g>
</g>
</svg>
